<?xml version="1.0" standalone="no"?>
<!DOCTYPE svg PUBLIC "-//W3C//DTD SVG 20010904//EN"
 "http://www.w3.org/TR/2001/REC-SVG-20010904/DTD/svg10.dtd">
<svg version="1.0" xmlns="http://www.w3.org/2000/svg"
 width="1000.000000pt" height="1000.000000pt" viewBox="0 0 1000.000000 1000.000000"
 preserveAspectRatio="xMidYMid meet">

<g transform="translate(0.000000,1000.000000) scale(0.100000,-0.100000)"
fill="#000000" stroke="none">
<path d="M2630 9480 c-347 -11 -549 -35 -760 -91 -609 -162 -1081 -598 -1288
-1189 -82 -235 -117 -461 -132 -860 -11 -266 -13 -3616 -3 -3812 3 -73 10
-125 15 -122 5 3 7 13 4 21 -3 8 -2 12 3 8 10 -6 63 12 71 24 5 8 74 48 193
111 37 20 76 43 86 52 11 9 22 14 24 11 9 -9 132 63 167 98 28 28 35 31 38 17
3 -15 7 -16 24 -7 11 6 35 15 52 20 l31 9 -25 -20 c-30 -24 -20 -26 22 -4 24
12 32 13 38 4 5 -8 13 -9 21 -4 11 6 11 5 0 -9 -21 -27 -7 -30 36 -9 21 11 49
23 63 27 20 6 23 5 12 -6 -14 -16 -16 -33 -2 -24 5 3 10 -1 10 -9 0 -12 5 -14
24 -6 20 7 25 5 29 -11 3 -10 12 -19 21 -19 9 0 16 -4 16 -10 0 -5 7 -10 16
-10 9 0 18 -9 21 -21 3 -12 11 -18 19 -15 9 3 16 -4 20 -19 3 -13 9 -24 13
-23 29 3 41 -4 41 -28 0 -14 4 -23 10 -19 9 5 15 -15 11 -37 0 -5 3 -8 8 -8 5
0 12 -8 15 -17 5 -18 4 15 -14 447 -13 296 -12 1791 0 2180 15 469 35 663 90
875 92 351 233 600 476 836 233 225 462 351 797 438 334 87 762 106 2166 98
1136 -7 1371 -19 1656 -92 689 -174 1138 -627 1305 -1315 75 -312 85 -522 85
-1880 0 -1349 -9 -1557 -79 -1869 -104 -460 -347 -828 -714 -1082 -216 -150
-522 -259 -867 -310 -143 -21 -175 -29 -114 -29 20 0 44 -8 55 -17 42 -38 92
-72 98 -66 9 9 58 -18 80 -45 10 -13 25 -21 33 -18 8 3 12 2 9 -3 -3 -4 11
-23 30 -42 19 -19 40 -40 47 -48 7 -7 29 -29 49 -48 21 -20 45 -56 54 -80 10
-26 22 -42 29 -39 7 2 17 -6 24 -20 6 -13 16 -24 22 -24 8 0 7 -6 -2 -17 -8
-9 -9 -14 -3 -10 15 9 44 -29 39 -53 -2 -11 1 -20 7 -20 5 0 7 8 4 18 -5 14
-4 14 9 -2 8 -11 15 -26 15 -34 0 -7 4 -10 10 -7 6 4 7 -1 3 -11 -5 -12 -3
-15 6 -9 10 5 11 2 6 -14 -5 -16 0 -29 17 -46 13 -13 30 -36 38 -52 8 -15 29
-51 47 -80 34 -54 40 -68 23 -58 -6 3 -7 -1 -4 -9 3 -9 11 -13 17 -9 6 3 7 1
3 -5 -4 -6 -2 -19 3 -29 5 -10 15 -33 21 -50 7 -18 17 -30 23 -26 6 3 7 1 3
-5 -4 -7 5 -29 19 -49 14 -21 25 -47 25 -59 0 -41 23 -47 133 -41 514 32 903
175 1242 459 311 260 525 623 619 1048 64 291 60 142 64 2810 3 2468 2 2573
-34 2835 -122 887 -767 1530 -1654 1649 -281 38 -313 39 -2545 41 -1204 1
-2300 -1 -2435 -5z m-1645 -5730 c-3 -5 -16 -15 -28 -21 -21 -10 -21 -9 2 10
25 23 36 27 26 11z"/>
<path d="M4135 7749 c-710 -9 -898 -25 -1133 -100 -431 -138 -700 -463 -782
-943 -42 -250 -45 -346 -45 -1566 0 -1136 8 -1525 35 -1645 l9 -40 -2 48 c-1
26 2 47 8 47 5 0 3 4 -5 10 -12 8 -12 10 4 16 14 5 15 9 4 16 -10 8 -10 11 0
15 6 2 10 9 6 14 -3 5 2 9 11 9 9 0 13 5 10 10 -4 6 -1 17 5 25 10 12 9 15 -6
16 -18 0 -18 1 1 8 11 5 22 7 25 6 3 -2 5 11 5 28 0 20 5 31 12 30 7 -2 10 4
7 12 -4 9 0 15 10 15 9 0 16 7 16 15 0 8 6 15 13 15 9 0 12 10 9 30 -4 25 -1
30 17 30 16 0 21 6 21 25 0 18 5 25 19 25 10 0 21 7 25 15 3 8 15 15 26 15 11
0 20 7 20 15 0 10 10 15 29 15 22 0 30 6 35 25 5 21 12 25 44 25 51 0 82 10
82 25 0 20 12 21 211 23 l187 3 24 -29 c18 -22 37 -31 74 -36 67 -10 85 -16
79 -27 -4 -5 -1 -9 4 -9 6 0 11 -6 11 -14 0 -10 16 -17 45 -22 25 -3 49 -12
53 -19 10 -17 47 -35 71 -35 12 0 21 -7 21 -15 0 -9 9 -15 23 -15 30 0 40 -10
26 -27 -9 -10 -3 -13 33 -13 46 0 105 -28 63 -30 -15 -1 -12 -4 10 -12 17 -6
47 -26 67 -44 20 -18 55 -38 77 -44 21 -5 54 -24 71 -40 18 -17 36 -27 41 -24
11 6 109 -45 109 -58 0 -4 6 -8 14 -8 8 0 38 -12 66 -26 29 -14 62 -27 73 -29
12 -1 49 -17 82 -34 33 -17 64 -31 68 -31 5 0 32 -11 60 -24 66 -31 109 -50
122 -51 33 -5 75 -21 110 -41 22 -13 63 -28 92 -34 28 -6 66 -22 84 -36 20
-14 47 -24 67 -24 19 0 48 -10 65 -22 18 -13 47 -23 72 -23 28 -1 54 -11 76
-27 38 -28 74 -43 64 -28 -13 21 26 9 70 -21 34 -23 49 -29 58 -20 18 18 42
13 67 -14 13 -14 28 -25 33 -25 5 0 17 -10 28 -23 18 -20 20 -21 29 -4 6 9 17
17 24 17 15 0 93 -69 225 -199 90 -88 90 -88 6 -64 -18 5 -18 3 4 -20 12 -14
20 -30 17 -36 -4 -6 -1 -9 6 -6 8 3 25 -6 38 -21 l25 -27 -39 7 -40 8 28 -36
c17 -23 22 -36 14 -36 -8 -1 -6 -6 6 -15 10 -7 16 -20 14 -27 -3 -7 5 -20 16
-29 20 -16 20 -16 -4 -17 -52 0 -55 -1 -34 -17 19 -14 19 -14 0 -15 -17 0 -17
-2 4 -20 13 -11 20 -23 17 -27 -4 -3 1 -12 11 -19 12 -10 13 -13 3 -14 -10 0
-11 -3 -2 -14 10 -11 8 -15 -6 -19 -10 -3 79 -5 197 -6 672 -3 1020 96 1290
369 134 135 218 278 275 464 78 259 92 470 101 1496 6 711 -6 1549 -26 1785
-30 351 -115 605 -265 792 -225 281 -511 412 -990 452 -249 21 -1297 31 -2150
20z m2654 -583 c84 -43 153 -115 191 -199 29 -62 34 -83 34 -152 0 -99 -21
-165 -78 -243 -70 -95 -201 -162 -316 -162 -155 0 -314 111 -370 258 -81 213
37 450 260 523 14 5 70 7 125 6 87 -3 107 -7 154 -31z m-1779 -426 c153 -14
321 -52 456 -105 147 -57 211 -90 335 -173 404 -271 653 -662 740 -1162 17
-97 17 -393 0 -490 -50 -289 -148 -527 -307 -751 -79 -112 -268 -299 -384
-381 -198 -140 -434 -241 -675 -289 -166 -33 -455 -34 -620 -2 -651 126 -1171
615 -1329 1251 -13 53 -30 131 -37 172 -19 110 -16 392 6 515 108 619 535
1125 1122 1328 230 80 452 108 693 87z m524 -3776 c5 -14 4 -15 -9 -4 -17 14
-19 20 -6 20 5 0 12 -7 15 -16z"/>
<path d="M4695 6139 c-141 -20 -309 -87 -441 -174 -320 -213 -504 -586 -480
-974 17 -282 130 -526 332 -722 397 -382 998 -412 1441 -73 177 135 315 347
380 580 26 91 28 113 28 279 0 166 -2 188 -28 279 -117 422 -451 727 -876 801
-90 16 -259 18 -356 4z"/>
<path d="M2786 4053 c-6 -14 -5 -15 5 -6 7 7 10 15 7 18 -3 3 -9 -2 -12 -12z"/>
<path d="M2715 4050 c-19 -8 -19 -9 2 -9 12 -1 25 4 28 9 7 12 -2 12 -30 0z"/>
<path d="M2415 3900 c-3 -5 -1 -10 4 -10 6 0 11 5 11 10 0 6 -2 10 -4 10 -3 0
-8 -4 -11 -10z"/>
<path d="M1010 3725 c-11 -13 -10 -14 4 -9 9 3 16 10 16 15 0 13 -6 11 -20 -6z"/>
<path d="M785 3580 c-3 -6 1 -7 9 -4 18 7 21 14 7 14 -6 0 -13 -4 -16 -10z"/>
<path d="M2222 3425 c0 -16 2 -22 5 -12 2 9 2 23 0 30 -3 6 -5 -1 -5 -18z"/>
<path d="M1602 3410 c0 -19 2 -27 5 -17 2 9 2 25 0 35 -3 9 -5 1 -5 -18z"/>
<path d="M2232 3370 c0 -14 2 -19 5 -12 2 6 2 18 0 25 -3 6 -5 1 -5 -13z"/>
<path d="M1612 3350 c0 -14 2 -19 5 -12 2 6 2 18 0 25 -3 6 -5 1 -5 -13z"/>
<path d="M2241 3324 c0 -11 3 -14 6 -6 3 7 2 16 -1 19 -3 4 -6 -2 -5 -13z"/>
<path d="M1621 3294 c0 -11 3 -14 6 -6 3 7 2 16 -1 19 -3 4 -6 -2 -5 -13z"/>
<path d="M1631 3244 c0 -11 3 -14 6 -6 3 7 2 16 -1 19 -3 4 -6 -2 -5 -13z"/>
<path d="M5110 3110 c0 -5 5 -10 11 -10 5 0 7 5 4 10 -3 6 -8 10 -11 10 -2 0
-4 -4 -4 -10z"/>
<path d="M5515 2900 c3 -5 8 -10 11 -10 2 0 4 5 4 10 0 6 -5 10 -11 10 -5 0
-7 -4 -4 -10z"/>
</g>
</svg>
